<svg preserveAspectRatio="none" width="100%" height="100%" overflow="visible" style="display: block;" viewBox="0 0 24.6274 14.7279" fill="none" xmlns="http://www.w3.org/2000/svg">
<path id="Arrow 8" d="M1 6.36396C0.447715 6.36396 0 6.81168 0 7.36396C0 7.91625 0.447715 8.36396 1 8.36396V7.36396V6.36396ZM24.3345 8.07107C24.725 7.68054 24.725 7.04738 24.3345 6.65685L17.9706 0.292893C17.58 -0.097631 16.9469 -0.097631 16.5563 0.292893C16.1658 0.683418 16.1658 1.31658 16.5563 1.70711L22.2132 7.36396L16.5563 13.0208C16.1658 13.4113 16.1658 14.0445 16.5563 14.435C16.9469 14.8256 17.58 14.8256 17.9706 14.435L24.3345 8.07107ZM1 7.36396V8.36396H23.6274V7.36396V6.36396H1V7.36396Z" fill="var(--stroke-0, white)"/>
</svg>
