<svg preserveAspectRatio="none" width="100%" height="100%" overflow="visible" style="display: block;" viewBox="0 0 40 40" fill="none" xmlns="http://www.w3.org/2000/svg">
<g id="iconstack.io - (Battery Vertical High Regular)">
<path id="Vector" d="M13.75 1.25C13.75 0.918479 13.8817 0.600537 14.1161 0.366117C14.3505 0.131696 14.6685 0 15 0L25 0C25.3315 0 25.6495 0.131696 25.8839 0.366117C26.1183 0.600537 26.25 0.918479 26.25 1.25C26.25 1.58152 26.1183 1.89946 25.8839 2.13388C25.6495 2.3683 25.3315 2.5 25 2.5H15C14.6685 2.5 14.3505 2.3683 14.1161 2.13388C13.8817 1.89946 13.75 1.58152 13.75 1.25ZM31.25 8.75V35C31.25 35.9946 30.8549 36.9484 30.1517 37.6517C29.4484 38.3549 28.4946 38.75 27.5 38.75H12.5C11.5054 38.75 10.5516 38.3549 9.84835 37.6517C9.14509 36.9484 8.75 35.9946 8.75 35V8.75C8.75 7.75544 9.14509 6.80161 9.84835 6.09835C10.5516 5.39509 11.5054 5 12.5 5H27.5C28.4946 5 29.4484 5.39509 30.1517 6.09835C30.8549 6.80161 31.25 7.75544 31.25 8.75ZM28.75 8.75C28.75 8.41848 28.6183 8.10054 28.3839 7.86612C28.1495 7.6317 27.8315 7.5 27.5 7.5H12.5C12.1685 7.5 11.8505 7.6317 11.6161 7.86612C11.3817 8.10054 11.25 8.41848 11.25 8.75V35C11.25 35.3315 11.3817 35.6495 11.6161 35.8839C11.8505 36.1183 12.1685 36.25 12.5 36.25H27.5C27.8315 36.25 28.1495 36.1183 28.3839 35.8839C28.6183 35.6495 28.75 35.3315 28.75 35V8.75ZM25 17.5H15C14.6685 17.5 14.3505 17.6317 14.1161 17.8661C13.8817 18.1005 13.75 18.4185 13.75 18.75C13.75 19.0815 13.8817 19.3995 14.1161 19.6339C14.3505 19.8683 14.6685 20 15 20H25C25.3315 20 25.6495 19.8683 25.8839 19.6339C26.1183 19.3995 26.25 19.0815 26.25 18.75C26.25 18.4185 26.1183 18.1005 25.8839 17.8661C25.6495 17.6317 25.3315 17.5 25 17.5ZM25 23.75H15C14.6685 23.75 14.3505 23.8817 14.1161 24.1161C13.8817 24.3505 13.75 24.6685 13.75 25C13.75 25.3315 13.8817 25.6495 14.1161 25.8839C14.3505 26.1183 14.6685 26.25 15 26.25H25C25.3315 26.25 25.6495 26.1183 25.8839 25.8839C26.1183 25.6495 26.25 25.3315 26.25 25C26.25 24.6685 26.1183 24.3505 25.8839 24.1161C25.6495 23.8817 25.3315 23.75 25 23.75ZM25 30H15C14.6685 30 14.3505 30.1317 14.1161 30.3661C13.8817 30.6005 13.75 30.9185 13.75 31.25C13.75 31.5815 13.8817 31.8995 14.1161 32.1339C14.3505 32.3683 14.6685 32.5 15 32.5H25C25.3315 32.5 25.6495 32.3683 25.8839 32.1339C26.1183 31.8995 26.25 31.5815 26.25 31.25C26.25 30.9185 26.1183 30.6005 25.8839 30.3661C25.6495 30.1317 25.3315 30 25 30Z" fill="var(--fill-0, #094CF2)"/>
</g>
</svg>
