<svg preserveAspectRatio="none" width="100%" height="100%" overflow="visible" style="display: block;" viewBox="0 0 32 32" fill="none" xmlns="http://www.w3.org/2000/svg">
<g id="iconstack.io - (Bell Ringing Fill)">
<path id="Vector" d="M27.9997 8.88704C27.7643 9.00894 27.4901 9.03238 27.2375 8.95222C26.9848 8.87206 26.7743 8.69485 26.6522 8.45954C25.6977 6.5739 24.2529 4.98017 22.4697 3.84579C22.3586 3.7757 22.2623 3.6844 22.1865 3.57712C22.1106 3.46983 22.0567 3.34866 22.0276 3.22051C21.9986 3.09237 21.9951 2.95976 22.0174 2.83027C22.0396 2.70077 22.0871 2.57692 22.1572 2.46579C22.2273 2.35466 22.3186 2.25842 22.4259 2.18257C22.5332 2.10673 22.6543 2.05275 22.7825 2.02373C22.9106 1.99472 23.0432 1.99122 23.1727 2.01345C23.3022 2.03568 23.4261 2.0832 23.5372 2.15329C25.6154 3.48396 27.303 5.34274 28.4272 7.53954C28.5491 7.77494 28.5725 8.04911 28.4924 8.30178C28.4122 8.55446 28.235 8.76497 27.9997 8.88704ZM4.46345 8.99954C4.64665 8.99946 4.82631 8.94906 4.98282 8.85383C5.13933 8.7586 5.26667 8.62221 5.35095 8.45954C6.30545 6.5739 7.75022 4.98017 9.53345 3.84579C9.75789 3.70423 9.9169 3.47931 9.97551 3.22051C10.0341 2.96171 9.98751 2.69023 9.84595 2.46579C9.70439 2.24135 9.47947 2.08234 9.22067 2.02373C8.96187 1.96513 8.69039 2.01173 8.46595 2.15329C6.3877 3.48396 4.70017 5.34274 3.57595 7.53954C3.497 7.69194 3.4586 7.8621 3.46445 8.03363C3.4703 8.20517 3.5202 8.37231 3.60936 8.51898C3.69851 8.66564 3.82392 8.78689 3.9735 8.87106C4.12308 8.95522 4.29181 8.99947 4.46345 8.99954ZM27.7259 21.992C27.9031 22.2958 27.997 22.641 27.9982 22.9927C27.9994 23.3444 27.9079 23.6901 27.7328 23.9952C27.5578 24.3002 27.3053 24.5536 27.0011 24.73C26.6968 24.9063 26.3514 24.9993 25.9997 24.9995H20.8997C20.6702 26.1298 20.057 27.146 19.164 27.8759C18.2709 28.6058 17.1531 29.0046 15.9997 29.0046C14.8463 29.0046 13.7285 28.6058 12.8354 27.8759C11.9424 27.146 11.3292 26.1298 11.0997 24.9995H5.9997C5.64822 24.9988 5.30314 24.9055 4.99921 24.729C4.69527 24.5525 4.44322 24.299 4.26845 23.9941C4.09367 23.6891 4.00234 23.3435 4.00366 22.9921C4.00498 22.6406 4.09889 22.2957 4.27595 21.992C5.4022 20.0483 5.9997 17.2845 5.9997 13.9995C5.9997 11.3474 7.05327 8.80384 8.92863 6.92847C10.804 5.05311 13.3475 3.99954 15.9997 3.99954C18.6519 3.99954 21.1954 5.05311 23.0708 6.92847C24.9461 8.80384 25.9997 11.3474 25.9997 13.9995C25.9997 17.2833 26.5972 20.047 27.7259 21.992ZM18.8272 24.9995H13.1722C13.3794 25.5838 13.7625 26.0895 14.2688 26.4472C14.7751 26.8049 15.3798 26.9969 15.9997 26.9969C16.6196 26.9969 17.2243 26.8049 17.7306 26.4472C18.2369 26.0895 18.62 25.5838 18.8272 24.9995Z" fill="url(#paint0_linear_0_204)"/>
</g>
<defs>
<linearGradient id="paint0_linear_0_204" x1="16.0015" y1="1.99902" x2="16.0015" y2="29.0046" gradientUnits="userSpaceOnUse">
<stop stop-color="#8C60FC"/>
<stop offset="1" stop-color="#533996"/>
</linearGradient>
</defs>
</svg>
