<svg preserveAspectRatio="none" width="100%" height="100%" overflow="visible" style="display: block;" viewBox="0 0 55.4995 56.7608" fill="none" xmlns="http://www.w3.org/2000/svg">
<g id="iconstack.io - (Brain Regular)">
<path id="Vector" d="M53.7659 27.4941C53.7636 25.1446 53.1108 22.8437 51.8831 20.8579C50.6554 18.872 48.9029 17.2823 46.8285 16.2727V15.9645C46.8265 13.6791 46.1051 11.455 44.7712 9.62132C43.4373 7.78767 41.5617 6.4419 39.4218 5.78312C37.282 5.12434 34.9917 5.18756 32.8897 5.96342C30.7877 6.73928 28.9858 8.18656 27.7505 10.0911C26.5152 8.18656 24.7133 6.73928 22.6113 5.96342C20.5093 5.18756 18.219 5.12434 16.0792 5.78312C13.9393 6.4419 12.0637 7.78767 10.7298 9.62132C9.39587 11.455 8.67455 13.6791 8.67255 15.9645V16.2727C6.59638 17.2795 4.84221 18.8682 3.61388 20.8542C2.38554 22.8402 1.73349 25.1419 1.73349 27.4919C1.73349 29.8418 2.38554 32.1435 3.61388 34.1295C4.84221 36.1155 6.59638 37.7042 8.67255 38.711V39.0236C8.67455 41.3091 9.39587 43.5332 10.7298 45.3669C12.0637 47.2005 13.9393 48.5463 16.0792 49.2051C18.219 49.8638 20.5093 49.8006 22.6113 49.0248C24.7133 48.2489 26.5152 46.8016 27.7505 44.8971C28.9858 46.8016 30.7877 48.2489 32.8897 49.0248C34.9917 49.8006 37.282 49.8638 39.4218 49.2051C41.5617 48.5463 43.4373 47.2005 44.7712 45.3669C46.1051 43.5332 46.8265 41.3091 46.8285 39.0236V38.711C48.9025 37.7022 50.6549 36.1133 51.8826 34.1282C53.1103 32.1431 53.7633 29.843 53.7659 27.4941ZM19.0787 46.1187C17.3681 46.1185 15.7179 45.4719 14.445 44.3031C13.1721 43.1343 12.3664 41.5257 12.1825 39.7864C12.7433 39.8682 13.3091 39.9097 13.8756 39.9105H15.61C16.07 39.9105 16.5111 39.7236 16.8364 39.391C17.1616 39.0583 17.3443 38.6072 17.3443 38.1367C17.3443 37.6663 17.1616 37.2151 16.8364 36.8825C16.5111 36.5498 16.07 36.363 15.61 36.363H13.8756C11.8281 36.3654 9.84582 35.6268 8.27967 34.278C6.71352 32.9291 5.66454 31.057 5.31847 28.9931C4.97239 26.9292 5.35154 24.8067 6.38878 23.0012C7.42602 21.1958 9.05445 19.8239 10.9858 19.1285C11.3237 19.0062 11.6162 18.7797 11.8231 18.4803C12.0301 18.181 12.1412 17.8234 12.1413 17.4567V15.9645C12.1413 14.0828 12.8722 12.2781 14.1732 10.9475C15.4742 9.61695 17.2388 8.86943 19.0787 8.86943C20.9186 8.86943 22.6832 9.61695 23.9842 10.9475C25.2852 12.2781 26.0161 14.0828 26.0161 15.9645V31.0993C24.1116 29.3474 21.6402 28.379 19.0787 28.381C18.6187 28.381 18.1776 28.5679 17.8523 28.9005C17.5271 29.2331 17.3443 29.6843 17.3443 30.1548C17.3443 30.6252 17.5271 31.0764 17.8523 31.409C18.1776 31.7416 18.6187 31.9285 19.0787 31.9285C20.9186 31.9285 22.6832 32.676 23.9842 34.0066C25.2852 35.3372 26.0161 37.1419 26.0161 39.0236C26.0161 40.9054 25.2852 42.71 23.9842 44.0406C22.6832 45.3712 20.9186 46.1187 19.0787 46.1187ZM41.6254 36.363H39.891C39.431 36.363 38.9899 36.5498 38.6646 36.8825C38.3394 37.2151 38.1567 37.6663 38.1567 38.1367C38.1567 38.6072 38.3394 39.0583 38.6646 39.391C38.9899 39.7236 39.431 39.9105 39.891 39.9105H41.6254C42.1919 39.9097 42.7577 39.8682 43.3185 39.7864C43.1745 41.1492 42.6474 42.4402 41.8012 43.5032C40.955 44.5663 39.8257 45.3558 38.5501 45.7765C37.2744 46.1971 35.9069 46.2308 34.6129 45.8734C33.3189 45.5161 32.1538 44.7831 31.2585 43.7629C30.3632 42.7428 29.776 41.4793 29.568 40.1251C29.3599 38.7709 29.5398 37.3841 30.0861 36.1323C30.6323 34.8805 31.5213 33.8173 32.6458 33.0713C33.7703 32.3252 35.082 31.9283 36.4223 31.9285C36.8823 31.9285 37.3234 31.7416 37.6487 31.409C37.9739 31.0764 38.1567 30.6252 38.1567 30.1548C38.1567 29.6843 37.9739 29.2331 37.6487 28.9005C37.3234 28.5679 36.8823 28.381 36.4223 28.381C33.8608 28.379 31.3894 29.3474 29.4849 31.0993V15.9645C29.4849 14.0828 30.2158 12.2781 31.5168 10.9475C32.8178 9.61695 34.5824 8.86943 36.4223 8.86943C38.2622 8.86943 40.0268 9.61695 41.3278 10.9475C42.6288 12.2781 43.3597 14.0828 43.3597 15.9645V17.4567C43.3598 17.8234 43.4709 18.181 43.6779 18.4803C43.8848 18.7797 44.1773 19.0062 44.5153 19.1285C46.4466 19.8239 48.075 21.1958 49.1122 23.0012C50.1495 24.8067 50.5286 26.9292 50.1825 28.9931C49.8365 31.057 48.7875 32.9291 47.2213 34.278C45.6552 35.6268 43.6729 36.3654 41.6254 36.363ZM45.0941 24.8334C45.0941 25.3039 44.9114 25.755 44.5861 26.0877C44.2609 26.4203 43.8197 26.6072 43.3597 26.6072H42.4926C40.4226 26.6072 38.4375 25.7662 36.9739 24.2693C35.5102 22.7724 34.6879 20.7422 34.6879 18.6252V17.7383C34.6879 17.2679 34.8707 16.8167 35.1959 16.4841C35.5212 16.1514 35.9623 15.9645 36.4223 15.9645C36.8823 15.9645 37.3234 16.1514 37.6487 16.4841C37.9739 16.8167 38.1567 17.2679 38.1567 17.7383V18.6252C38.1567 19.8013 38.6135 20.9292 39.4266 21.7608C40.2398 22.5924 41.3426 23.0596 42.4926 23.0596H43.3597C43.8197 23.0596 44.2609 23.2465 44.5861 23.5792C44.9114 23.9118 45.0941 24.363 45.0941 24.8334ZM13.0084 26.6072H12.1413C11.6813 26.6072 11.2401 26.4203 10.9149 26.0877C10.5896 25.755 10.4069 25.3039 10.4069 24.8334C10.4069 24.363 10.5896 23.9118 10.9149 23.5792C11.2401 23.2465 11.6813 23.0596 12.1413 23.0596H13.0084C14.1584 23.0596 15.2613 22.5924 16.0744 21.7608C16.8875 20.9292 17.3443 19.8013 17.3443 18.6252V17.7383C17.3443 17.2679 17.5271 16.8167 17.8523 16.4841C18.1776 16.1514 18.6187 15.9645 19.0787 15.9645C19.5387 15.9645 19.9798 16.1514 20.3051 16.4841C20.6303 16.8167 20.8131 17.2679 20.8131 17.7383V18.6252C20.8131 20.7422 19.9908 22.7724 18.5271 24.2693C17.0635 25.7662 15.0784 26.6072 13.0084 26.6072Z" fill="url(#paint0_linear_0_81)"/>
</g>
<defs>
<linearGradient id="paint0_linear_0_81" x1="27.7497" y1="5.33141" x2="27.7497" y2="49.6568" gradientUnits="userSpaceOnUse">
<stop stop-color="#0954C7"/>
<stop offset="1" stop-color="#042961"/>
</linearGradient>
</defs>
</svg>
