<svg preserveAspectRatio="none" width="100%" height="100%" overflow="visible" style="display: block;" viewBox="0 0 70.6357 70.6357" fill="none" xmlns="http://www.w3.org/2000/svg">
<g id="iconstack.io - (Circle Dashed)">
<path id="Vector" d="M25.1935 10.8624C21.9798 12.1927 19.0595 14.1428 16.5994 16.6015" stroke="var(--stroke-0, #33B2F6)" stroke-width="4.51985" stroke-linecap="round" stroke-linejoin="round"/>
<path id="Vector_2" d="M10.8601 25.193C9.52553 28.4019 8.8355 31.8421 8.82931 35.3175" stroke="var(--stroke-0, #0954C7)" stroke-width="4.51985" stroke-linecap="round" stroke-linejoin="round"/>
<path id="Vector_3" d="M10.8593 45.4436C12.1896 48.6573 14.1397 51.5776 16.5984 54.0377" stroke="var(--stroke-0, #33B2F6)" stroke-width="4.51985" stroke-linecap="round" stroke-linejoin="round"/>
<path id="Vector_4" d="M25.1936 59.7743C28.4025 61.1088 31.8427 61.7989 35.3181 61.8051" stroke="var(--stroke-0, #0954C7)" stroke-width="4.51985" stroke-linecap="round" stroke-linejoin="round"/>
<path id="Vector_5" d="M45.443 59.777C48.6567 58.4467 51.5769 56.4966 54.037 54.0378" stroke="var(--stroke-0, #92E6F8)" stroke-width="4.51985" stroke-linecap="round" stroke-linejoin="round"/>
<path id="Vector_6" d="M59.7736 45.4428C61.1082 42.2339 61.7982 38.7937 61.8044 35.3183" stroke="var(--stroke-0, #33B2F6)" stroke-width="4.51985" stroke-linecap="round" stroke-linejoin="round"/>
<path id="Vector_7" d="M59.7764 25.1928C58.4461 21.9792 56.4959 19.0589 54.0372 16.5988" stroke="var(--stroke-0, #0954C7)" stroke-width="4.51985" stroke-linecap="round" stroke-linejoin="round"/>
<path id="Vector_8" d="M45.4422 10.8607C42.2332 9.52616 38.7931 8.83612 35.3177 8.82993" stroke="var(--stroke-0, #92E6F8)" stroke-width="4.51985" stroke-linecap="round" stroke-linejoin="round"/>
</g>
</svg>
