<svg preserveAspectRatio="none" width="100%" height="100%" overflow="visible" style="display: block;" viewBox="0 0 36 36" fill="none" xmlns="http://www.w3.org/2000/svg">
<g id="iconstack.io - (Flower Lotus Light)">
<path id="Vector" d="M34.3266 17.2448C34.2015 17.0249 34.0338 16.832 33.8334 16.6775C33.633 16.523 33.4039 16.4099 33.1594 16.3448C32.0502 16.0612 30.9012 15.9662 29.7605 16.0636C30.4172 13.1625 29.9883 10.8731 29.5566 9.53859C29.4059 9.06715 29.0851 8.66871 28.6566 8.42095C28.2282 8.17318 27.7228 8.09386 27.2391 8.19844C25.7375 8.53522 24.316 9.16142 23.0541 10.042C22.1758 8.13149 20.848 6.46204 19.1841 5.17641C18.8426 4.91915 18.4268 4.78001 17.9993 4.78001C17.5718 4.78001 17.1559 4.91915 16.8145 5.17641C15.1515 6.4626 13.8243 8.13193 12.9459 10.042C11.6836 9.1611 10.2616 8.53487 8.75953 8.19844C8.27578 8.09399 7.77046 8.17355 7.34221 8.42161C6.91397 8.66967 6.59353 9.06841 6.44344 9.54C6.01172 10.8745 5.58281 13.1639 6.23953 16.065C5.09881 15.9676 3.94982 16.0626 2.84063 16.3462C2.59609 16.4113 2.36695 16.5244 2.16656 16.6789C1.96617 16.8334 1.79854 17.0263 1.67344 17.2462C1.54196 17.4723 1.45683 17.7223 1.42303 17.9816C1.38923 18.2409 1.40743 18.5044 1.47656 18.7566C1.94203 20.4834 3.375 23.7656 7.72312 26.3686C12.0712 28.9716 15.9314 28.9687 18 28.9687C20.0686 28.9687 23.9231 28.9687 28.2741 26.3686C32.625 23.7684 34.0552 20.4834 34.5206 18.7552C34.5902 18.5031 34.6088 18.2398 34.5755 17.9805C34.5422 17.7212 34.4576 17.4711 34.3266 17.2448ZM23.6925 11.6578C24.8503 10.7848 26.1797 10.1665 27.5934 9.84375C27.6685 9.82842 27.7466 9.84151 27.8126 9.88049C27.8786 9.91946 27.9278 9.98153 27.9506 10.0547C28.5047 11.7731 29.0489 15.3281 26.4614 19.8281C25.4227 21.6031 24.0915 23.1896 22.5239 24.5208C23.6039 22.6406 24.4687 20.0995 24.4687 16.7583C24.4819 15.0277 24.2199 13.3061 23.6925 11.6578ZM8.04938 10.0589C8.07137 9.98497 8.1202 9.92191 8.18627 9.88211C8.25235 9.84231 8.33092 9.82863 8.40656 9.84375C9.82027 10.1665 11.1497 10.7848 12.3075 11.6578C11.7801 13.3061 11.5181 15.0277 11.5313 16.7583C11.5313 20.0995 12.3961 22.6434 13.4733 24.5166C11.9054 23.1857 10.5741 21.5991 9.53578 19.8239C6.95109 15.3281 7.49531 11.7731 8.04938 10.0589ZM8.58938 24.9187C4.75031 22.6252 3.50578 19.7972 3.105 18.3094C3.09449 18.2716 3.09169 18.2321 3.09676 18.1932C3.10184 18.1543 3.11468 18.1168 3.13453 18.083C3.16506 18.0287 3.21548 17.9883 3.27516 17.9705C4.41166 17.6881 5.59333 17.6369 6.75 17.82C7.10679 18.808 7.55057 19.7624 8.07609 20.6719C9.51886 23.1617 11.4863 25.3076 13.8417 26.9606C11.9848 26.5931 10.2069 25.902 8.58938 24.9187ZM18 27.1209C16.7794 26.2491 13.2188 23.1553 13.2188 16.7583C13.2188 10.6608 16.4447 7.56984 17.8313 6.52359C17.8799 6.48708 17.9391 6.46734 18 6.46734C18.0609 6.46734 18.1201 6.48708 18.1687 6.52359C19.5553 7.56984 22.7812 10.6608 22.7812 16.7583C22.7812 23.1947 19.2389 26.2505 18 27.1209ZM32.8922 18.315C32.4914 19.7972 31.2469 22.6252 27.4078 24.9244C25.7885 25.9056 24.0092 26.5944 22.1512 26.9592C24.5067 25.3062 26.4741 23.1603 27.9169 20.6705C28.4447 19.7616 28.8909 18.8077 29.25 17.82C30.408 17.6383 31.5906 17.6914 32.7277 17.9761C32.7873 17.994 32.8377 18.0343 32.8683 18.0886C32.8877 18.1226 32.9 18.1602 32.9046 18.1991C32.9092 18.238 32.9059 18.2774 32.895 18.315H32.8922Z" fill="url(#paint0_linear_0_128)"/>
</g>
<defs>
<linearGradient id="paint0_linear_0_128" x1="17.999" y1="4.78001" x2="17.999" y2="28.9687" gradientUnits="userSpaceOnUse">
<stop stop-color="#0548C8"/>
<stop offset="1" stop-color="#022362"/>
</linearGradient>
</defs>
</svg>
