<svg preserveAspectRatio="none" width="100%" height="100%" overflow="visible" style="display: block;" viewBox="0 0 24 24" fill="none" xmlns="http://www.w3.org/2000/svg">
<g id="iconstack.io - (Flower Lotus Duotone)">
<path id="Vector" opacity="0.2" d="M12 18.75C10.5591 18.75 8.17781 18.7331 5.4375 17.0963C2.69719 15.4594 1.81031 13.4063 1.52625 12.3581C1.49935 12.2641 1.49125 12.1656 1.50242 12.0684C1.51359 11.9712 1.54381 11.8772 1.59135 11.7917C1.63889 11.7062 1.70282 11.6309 1.77948 11.5701C1.85614 11.5094 1.94403 11.4643 2.03812 11.4375C2.98465 11.2017 3.972 11.1812 4.9275 11.3775C4.21219 9.13875 4.5525 7.39875 4.83375 6.52969C4.89268 6.35053 5.01541 6.19929 5.17859 6.10474C5.34177 6.01018 5.53401 5.97891 5.71875 6.01688C6.4275 6.16781 7.62 6.5625 8.86875 7.575C8.44716 8.72724 8.23754 9.94625 8.25 11.1731C8.25 16.6875 12 18.75 12 18.75ZM21.9619 11.4375C21.0153 11.2017 20.028 11.1812 19.0725 11.3775C19.7878 9.13875 19.4475 7.39875 19.1663 6.52969C19.1073 6.35053 18.9846 6.19929 18.8214 6.10474C18.6582 6.01018 18.466 5.97891 18.2813 6.01688C17.5763 6.16781 16.3838 6.56063 15.135 7.575C15.5553 8.72747 15.7637 9.94648 15.75 11.1731C15.75 16.6875 12 18.75 12 18.75C13.4409 18.75 15.8222 18.7331 18.5625 17.0963C21.3028 15.4594 22.1897 13.4081 22.4738 12.3581C22.5007 12.2641 22.5087 12.1656 22.4976 12.0684C22.4864 11.9712 22.4562 11.8772 22.4086 11.7917C22.3611 11.7062 22.2972 11.6309 22.2205 11.5701C22.1439 11.5094 22.056 11.4643 21.9619 11.4375Z" fill="var(--fill-0, #2C75FC)"/>
<path id="Vector_2" d="M23.0466 11.4028C22.9509 11.2347 22.8227 11.0874 22.6695 10.9694C22.5162 10.8514 22.341 10.7651 22.1541 10.7156C21.4758 10.541 20.775 10.4709 20.0756 10.5075C20.4506 8.64656 20.1694 7.17469 19.8825 6.30188C19.7681 5.94334 19.5244 5.64024 19.1987 5.45167C18.873 5.2631 18.4888 5.20256 18.1209 5.28188C17.167 5.49434 16.2599 5.87942 15.4444 6.41812C14.8471 5.1981 13.9776 4.13161 12.9028 3.30094C12.6424 3.1056 12.3256 3 12 3C11.6744 3 11.3576 3.1056 11.0972 3.30094C10.0222 4.13136 9.15258 5.19792 8.55562 6.41812C7.74014 5.87942 6.83304 5.49434 5.87906 5.28188C5.51119 5.20256 5.12696 5.2631 4.80129 5.45167C4.47562 5.64024 4.23185 5.94334 4.1175 6.30188C3.83625 7.17469 3.555 8.64563 3.92437 10.5075C3.22501 10.4709 2.52415 10.541 1.84594 10.7156C1.65899 10.7651 1.48378 10.8514 1.33054 10.9694C1.1773 11.0874 1.04911 11.2347 0.953437 11.4028C0.853317 11.575 0.788489 11.7654 0.762736 11.9629C0.736982 12.1604 0.750818 12.361 0.803437 12.5531C1.12125 13.7316 2.09719 15.9731 5.05312 17.7394C8.00906 19.5056 10.6059 19.5 12.0047 19.5C13.4034 19.5 16.005 19.5 18.9422 17.7394C21.8981 15.9731 22.8741 13.7316 23.1919 12.5531C23.2452 12.3613 23.2598 12.1609 23.2349 11.9634C23.2099 11.7659 23.1459 11.5753 23.0466 11.4028ZM5.54437 6.76312C5.54549 6.75847 5.54835 6.75442 5.55236 6.75181C5.55637 6.74919 5.56123 6.74821 5.56594 6.74906C6.43827 6.94612 7.26148 7.31833 7.98562 7.84313C7.6559 8.92177 7.49215 10.0443 7.5 11.1722C7.5 12.9291 7.85344 14.3597 8.35406 15.5109C7.64235 14.7986 7.02654 13.9965 6.52219 13.125C4.83281 10.1831 5.18437 7.875 5.54437 6.76312ZM5.82562 16.4522C3.32531 14.9597 2.51437 13.1297 2.25 12.1594C2.93983 11.9895 3.65565 11.9523 4.35937 12.0497C4.59431 12.679 4.88124 13.2877 5.21719 13.8694C6.04205 15.2915 7.12271 16.5489 8.40469 17.5781C7.49817 17.3175 6.62981 16.9389 5.82187 16.4522H5.82562ZM12 17.85C11.1253 17.1994 9 15.2034 9 11.1722C9 7.19062 11.0981 5.17875 12 4.5C12.9019 5.18063 15 7.1925 15 11.1741C15 15.2034 12.8747 17.1994 12 17.85ZM16.0144 7.84313C16.7386 7.31867 17.5618 6.94677 18.4341 6.75C18.4388 6.74915 18.4436 6.75013 18.4476 6.75275C18.4516 6.75536 18.4545 6.75941 18.4556 6.76406C18.8156 7.875 19.1672 10.1831 17.4778 13.125C16.9739 13.9977 16.3581 14.8007 15.6459 15.5137C16.1466 14.3644 16.5 12.9319 16.5 11.175C16.5081 10.0462 16.3444 8.92267 16.0144 7.84313ZM21.75 12.1613C21.4903 13.1222 20.6812 14.9559 18.1791 16.4522C17.3711 16.9386 16.5027 17.3169 15.5962 17.5772C16.8782 16.5479 17.9589 15.2906 18.7837 13.8684C19.1197 13.2867 19.4066 12.6781 19.6416 12.0488C20.3451 11.9518 21.0606 11.9897 21.75 12.1603V12.1613Z" fill="var(--fill-0, #2C75FC)"/>
</g>
</svg>
