<svg preserveAspectRatio="none" width="100%" height="100%" overflow="visible" style="display: block;" viewBox="0 0 31 31" fill="none" xmlns="http://www.w3.org/2000/svg">
<g id="iconstack.io - (Ic Fluent Food Apple 24 Filled)">
<path id="Vector" d="M7.0673 4.41653C6.9615 6.20689 7.57149 8.03523 8.89783 9.43134C6.4727 10.1283 4.54402 12.1921 4.16969 14.8769C3.7455 17.9194 4.37083 21.0157 5.9426 23.6551L6.39599 24.4165C6.41279 24.4447 6.43102 24.472 6.45058 24.4984L8.27953 26.9612C9.92828 29.1815 13.1767 29.388 15.0935 27.3946C15.3153 27.1639 15.6846 27.1639 15.9065 27.3946C17.8232 29.388 21.0716 29.1815 22.7204 26.9612L24.5493 24.4984C24.5689 24.472 24.5871 24.4447 24.6039 24.4165L25.0573 23.6551C26.6291 21.0157 27.2544 17.9194 26.8302 14.8769C26.3023 11.0906 22.6831 8.53949 18.9396 9.31509L16.4827 9.82413L16.4787 9.82496C16.518 8.81766 16.675 7.73132 16.9841 6.80419C17.3578 5.68308 17.8781 5.00911 18.4559 4.76838C18.9498 4.5626 19.1833 3.99542 18.9776 3.50156C18.7718 3.00767 18.2046 2.77414 17.7107 2.97992C16.351 3.54647 15.5796 4.89073 15.1461 6.1915C15.1258 6.25225 15.1062 6.31337 15.0871 6.37484C14.7773 5.77495 14.371 5.21195 13.8681 4.70913C12.457 3.29791 10.5717 2.64726 8.72697 2.75659C7.83172 2.80964 7.1202 3.52129 7.0673 4.41653ZM10.846 14.5112C10.3981 14.6007 9.98765 14.9159 9.73006 15.5171C9.46758 16.1296 9.37497 17.0364 9.65819 18.1701C9.78788 18.6893 9.47219 19.2152 8.95312 19.3449C8.43405 19.4745 7.90814 19.1589 7.77847 18.6398C7.41634 17.1901 7.4852 15.8366 7.94919 14.7539C8.4181 13.6596 9.29915 12.8446 10.466 12.6113C10.9907 12.5064 11.501 12.8466 11.6059 13.3712C11.7109 13.8959 11.3706 14.4062 10.846 14.5112Z" fill="url(#paint0_linear_0_46)"/>
</g>
<defs>
<linearGradient id="paint0_linear_0_46" x1="15.5" y1="2.74479" x2="15.5" y2="28.7671" gradientUnits="userSpaceOnUse">
<stop stop-color="#4285F3"/>
<stop offset="1" stop-color="#264D8D"/>
</linearGradient>
</defs>
</svg>
