<svg preserveAspectRatio="none" width="100%" height="100%" overflow="visible" style="display: block;" viewBox="0 0 14.8073 14.8073" fill="none" xmlns="http://www.w3.org/2000/svg">
<g id="iconstack.io - (Heart)">
<path id="Vector" d="M12.0307 7.75618L7.40345 12.3391L2.77615 7.75618C2.47094 7.45918 2.23053 7.1022 2.07006 6.70772C1.90959 6.31324 1.83253 5.88981 1.84374 5.46409C1.85496 5.03837 1.9542 4.61958 2.13521 4.23409C2.31623 3.84861 2.5751 3.50478 2.89553 3.22426C3.21595 2.94374 3.59099 2.7326 3.99702 2.60414C4.40306 2.47568 4.83129 2.43269 5.25476 2.47786C5.67822 2.52303 6.08775 2.6554 6.45755 2.86662C6.82735 3.07784 7.14941 3.36334 7.40345 3.70514C7.65858 3.36582 7.98102 3.08281 8.35056 2.87384C8.7201 2.66486 9.12881 2.5344 9.55109 2.49064C9.97336 2.44688 10.4001 2.49075 10.8047 2.61951C11.2092 2.74827 11.5828 2.95914 11.9021 3.23893C12.2214 3.51873 12.4795 3.86141 12.6603 4.24554C12.8411 4.62967 12.9406 5.04698 12.9527 5.47135C12.9648 5.89572 12.8891 6.31802 12.7305 6.7118C12.5718 7.10559 12.3336 7.46239 12.0307 7.75988" stroke="var(--stroke-0, #225B88)" stroke-width="1.23394" stroke-linecap="round" stroke-linejoin="round"/>
</g>
</svg>
