<svg preserveAspectRatio="none" width="100%" height="100%" overflow="visible" style="display: block;" viewBox="0 0 37 37" fill="none" xmlns="http://www.w3.org/2000/svg">
<g id="iconstack.io - (Heartbeat Fill)">
<path id="Vector" d="M34.6875 14.7422C34.6875 24.8594 19.6866 33.0485 19.0478 33.3867C18.8794 33.4773 18.6912 33.5247 18.5 33.5247C18.3088 33.5247 18.1206 33.4773 17.9522 33.3867C17.468 33.1266 8.76727 28.3729 4.55707 21.6956C4.50276 21.6081 4.4728 21.5077 4.47027 21.4048C4.46774 21.3019 4.49274 21.2002 4.54269 21.1101C4.59264 21.0201 4.66572 20.9451 4.75439 20.8927C4.84305 20.8404 4.94408 20.8127 5.04703 20.8125H10.4062C10.5967 20.8126 10.7841 20.7657 10.9521 20.676C11.12 20.5862 11.2632 20.4564 11.3688 20.298L12.7188 18.2745L16.3812 23.7667C16.5215 23.9772 16.727 24.1358 16.9661 24.2183C17.2052 24.3008 17.4648 24.3026 17.7051 24.2234C17.9599 24.1371 18.178 23.9669 18.3237 23.7407L20.2748 20.8125H23.125C23.2835 20.8128 23.4404 20.7806 23.5859 20.7178C23.7314 20.6549 23.8625 20.5628 23.9709 20.4472C24.0793 20.3316 24.1628 20.1949 24.2162 20.0457C24.2696 19.8964 24.2918 19.7378 24.2812 19.5796C24.2554 19.2825 24.1181 19.006 23.897 18.8058C23.6758 18.6056 23.3872 18.4963 23.0889 18.5H19.6562C19.4658 18.4999 19.2784 18.5468 19.1104 18.6365C18.9425 18.7263 18.7993 18.8561 18.6937 19.0145L17.3438 21.038L13.6813 15.5458C13.5409 15.335 13.3352 15.1762 13.0958 15.0937C12.8563 15.0112 12.5964 15.0095 12.356 15.0891C12.1018 15.1759 11.8843 15.346 11.7388 15.5718L9.78766 18.5H3.40082C3.27726 18.5003 3.15685 18.4611 3.05723 18.388C2.95761 18.3149 2.88402 18.2118 2.84727 18.0939C2.49854 17.0106 2.31818 15.8802 2.3125 14.7422C2.31518 12.3664 3.26013 10.0887 4.94006 8.40881C6.61998 6.72888 8.89767 5.78393 11.2734 5.78125C14.258 5.78125 16.8711 7.06469 18.5 9.2341C20.1289 7.06469 22.742 5.78125 25.7266 5.78125C28.1023 5.78393 30.38 6.72888 32.0599 8.40881C33.7399 10.0887 34.6848 12.3664 34.6875 14.7422Z" fill="var(--fill-0, #4B5563)"/>
</g>
</svg>
