<svg preserveAspectRatio="none" width="100%" height="100%" overflow="visible" style="display: block;" viewBox="0 0 36 36" fill="none" xmlns="http://www.w3.org/2000/svg">
<g id="iconstack.io - (Hearts)">
<path id="Vector" d="M21.0255 27L18 30L6.75 18.858C6.00796 18.1359 5.42346 17.268 5.03332 16.309C4.64318 15.3499 4.45584 14.3204 4.48311 13.2854C4.51037 12.2504 4.75164 11.2322 5.19174 10.295C5.63183 9.35781 6.2612 8.52188 7.04023 7.83987C7.81926 7.15786 8.73106 6.64453 9.71822 6.33222C10.7054 6.01991 11.7465 5.91538 12.7761 6.0252C13.8056 6.13503 14.8012 6.45684 15.7003 6.97036C16.5994 7.48388 17.3824 8.178 18 9.009C19.1734 7.4468 20.9101 6.40417 22.8406 6.10298C24.771 5.80179 26.7428 6.26581 28.3364 7.39632C29.9299 8.52682 31.0194 10.2345 31.3729 12.1561C31.7265 14.0776 31.3163 16.0613 30.2295 17.685" stroke="url(#paint0_linear_0_51)" stroke-width="2" stroke-linecap="round" stroke-linejoin="round"/>
<path id="Vector_2" d="M23.985 30L30.2805 23.6655C31.0591 22.8767 31.4957 21.8129 31.4957 20.7045C31.4957 19.5961 31.0591 18.5323 30.2805 17.7435C29.8979 17.3545 29.4419 17.0454 28.9388 16.834C28.4358 16.6227 27.8958 16.5134 27.3502 16.5124C26.8046 16.5114 26.2642 16.6188 25.7604 16.8283C25.2566 17.0379 24.7995 17.3454 24.4155 17.733L23.9955 18.156L23.577 17.7315C23.1944 17.3425 22.7384 17.0334 22.2353 16.822C21.7323 16.6107 21.1923 16.5014 20.6467 16.5004C20.1011 16.4994 19.5607 16.6068 19.0569 16.8163C18.5531 17.0259 18.096 17.3334 17.712 17.721C16.932 18.5084 16.4935 19.5715 16.4915 20.6798C16.4896 21.7882 16.9243 22.8528 17.7015 23.643L23.9745 30H23.985Z" stroke="url(#paint1_linear_0_51)" stroke-width="2" stroke-linecap="round" stroke-linejoin="round"/>
</g>
<defs>
<linearGradient id="paint0_linear_0_51" x1="17.9886" y1="5.98289" x2="17.9886" y2="30" gradientUnits="userSpaceOnUse">
<stop stop-color="#0548C8"/>
<stop offset="1" stop-color="#022362"/>
</linearGradient>
<linearGradient id="paint1_linear_0_51" x1="23.9936" y1="16.5004" x2="23.9936" y2="30" gradientUnits="userSpaceOnUse">
<stop stop-color="#0548C8"/>
<stop offset="1" stop-color="#022362"/>
</linearGradient>
</defs>
</svg>
