<svg preserveAspectRatio="none" width="100%" height="100%" overflow="visible" style="display: block;" viewBox="0 0 37 37" fill="none" xmlns="http://www.w3.org/2000/svg">
<g id="iconstack.io - (Leaf Fill)">
<path id="Vector" d="M32.2951 5.79153C32.2785 5.50867 32.1587 5.24171 31.9584 5.04135C31.758 4.84099 31.491 4.72118 31.2082 4.70466C20.205 4.05861 11.3915 7.37126 7.63369 13.5861C6.33112 15.712 5.68925 18.1769 5.78947 20.6681C5.85489 22.2612 6.17902 23.833 6.74916 25.322C6.78266 25.4137 6.83881 25.4953 6.91238 25.5594C6.98594 25.6235 7.07453 25.668 7.16989 25.6886C7.26526 25.7092 7.36429 25.7054 7.45777 25.6774C7.55125 25.6495 7.63613 25.5983 7.70451 25.5287L19.9897 13.0557C20.0971 12.9482 20.2246 12.863 20.365 12.8049C20.5054 12.7468 20.6558 12.7168 20.8077 12.7168C20.9596 12.7168 21.1101 12.7468 21.2504 12.8049C21.3908 12.863 21.5183 12.9482 21.6258 13.0557C21.7332 13.1631 21.8184 13.2906 21.8765 13.431C21.9347 13.5714 21.9646 13.7218 21.9646 13.8737C21.9646 14.0256 21.9347 14.1761 21.8765 14.3164C21.8184 14.4568 21.7332 14.5843 21.6258 14.6918L8.20025 28.3196L6.14936 30.3705C5.93606 30.5782 5.80873 30.8585 5.79266 31.1557C5.77659 31.453 5.87297 31.7454 6.06264 31.9748C6.16651 32.0951 6.29406 32.1927 6.43733 32.2615C6.5806 32.3302 6.73651 32.3688 6.89533 32.3746C7.05415 32.3804 7.21246 32.3535 7.36039 32.2954C7.50832 32.2373 7.64269 32.1493 7.7551 32.037L10.1818 29.6103C12.2254 30.5989 14.2879 31.138 16.333 31.2102C16.4939 31.216 16.6544 31.2189 16.8143 31.2189C19.1433 31.2249 21.4281 30.5834 23.4136 29.366C29.6285 25.6082 32.9426 16.7961 32.2951 5.79153Z" fill="var(--fill-0, #4B5563)"/>
</g>
</svg>
