<svg preserveAspectRatio="none" width="100%" height="100%" overflow="visible" style="display: block;" viewBox="0 0 29 29" fill="none" xmlns="http://www.w3.org/2000/svg">
<g id="iconstack.io - (Moon Sleep)">
<path id="Vector" fill-rule="evenodd" clip-rule="evenodd" d="M13.3127 3.38523C7.69795 3.97809 3.32292 8.72813 3.32292 14.5C3.32292 20.6729 8.32707 25.6771 14.5 25.6771C20.2718 25.6771 25.0219 21.3021 25.6147 15.6873C24.0116 17.7225 21.5236 19.0312 18.7292 19.0312C13.8909 19.0312 9.96875 15.1091 9.96875 10.2708C9.96875 7.47642 11.2776 4.98836 13.3127 3.38523ZM1.51042 14.5C1.51042 7.32605 7.32605 1.51042 14.5 1.51042C15.3659 1.51042 15.7994 2.20069 15.8736 2.75049C15.9452 3.27939 15.7497 3.95204 15.1416 4.31939C13.1258 5.53755 11.7813 7.74762 11.7813 10.2708C11.7813 14.108 14.892 17.2187 18.7292 17.2187C21.2524 17.2187 23.4625 15.8742 24.6806 13.8584C25.0479 13.2503 25.7206 13.0548 26.2495 13.1264C26.7993 13.2006 27.4896 13.6341 27.4896 14.5C27.4896 21.674 21.674 27.4896 14.5 27.4896C7.32605 27.4896 1.51042 21.674 1.51042 14.5ZM21.75 3.32292C21.2495 3.32292 20.8438 2.91717 20.8438 2.41667C20.8438 1.91616 21.2495 1.51042 21.75 1.51042H26.5833C26.9498 1.51042 27.2803 1.73122 27.4206 2.06986C27.5609 2.4085 27.4833 2.79829 27.2241 3.05748L23.9379 6.34375H26.5833C27.0838 6.34375 27.4896 6.7495 27.4896 7.25C27.4896 7.7505 27.0838 8.15625 26.5833 8.15625H21.75C21.3835 8.15625 21.053 7.93545 20.9127 7.5968C20.7725 7.25817 20.85 6.86837 21.1092 6.60918L24.3954 3.32292H21.75ZM16.3125 10.5729C15.812 10.5729 15.4063 10.1672 15.4063 9.66667C15.4063 9.16616 15.812 8.76042 16.3125 8.76042H19.9375C20.304 8.76042 20.6345 8.98121 20.7748 9.31986C20.915 9.6585 20.8375 10.0483 20.5783 10.3075L18.5004 12.3854H19.9375C20.438 12.3854 20.8438 12.7912 20.8438 13.2917C20.8438 13.7922 20.438 14.1979 19.9375 14.1979H16.3125C15.946 14.1979 15.6155 13.9772 15.4752 13.6385C15.335 13.2999 15.4125 12.9101 15.6717 12.6509L17.7496 10.5729H16.3125Z" fill="url(#paint0_linear_0_48)"/>
</g>
<defs>
<linearGradient id="paint0_linear_0_48" x1="14.5" y1="1.51042" x2="14.5" y2="27.4896" gradientUnits="userSpaceOnUse">
<stop stop-color="#225B88"/>
<stop offset="1" stop-color="#091722"/>
</linearGradient>
</defs>
</svg>
