<svg preserveAspectRatio="none" width="100%" height="100%" overflow="visible" style="display: block;" viewBox="0 0 37 37" fill="none" xmlns="http://www.w3.org/2000/svg">
<g id="iconstack.io - (Oxygen)" clip-path="url(#clip0_0_42)">
<path id="Vector" d="M36.8304 18.5C36.8304 8.28338 28.6226 0 18.5 0C8.37742 0 0.168042 8.28338 0.168042 18.5C0.168042 28.7166 8.37588 37 18.5 37C21.6049 37 24.5279 36.2168 27.0917 34.8417C28.0475 35.3874 29.1545 35.7019 30.3369 35.7019C33.9228 35.7019 36.8304 32.8267 36.8304 29.2809C36.8304 27.8225 36.3386 26.4781 35.5092 25.4005C36.3602 23.2684 36.8304 20.9389 36.8304 18.5ZM3.83567 18.5077C3.83567 10.1087 10.417 3.30071 18.5355 3.30071C26.6539 3.30071 33.2353 10.1087 33.2353 18.5077C33.2353 20.1573 32.9793 21.7437 32.5091 23.2298C31.8117 22.9849 31.0777 22.8603 30.3385 22.8614C26.7525 22.8614 23.845 25.7366 23.845 29.2824C23.845 30.3924 24.1302 31.4361 24.6312 32.3472C22.7266 33.2503 20.6448 33.7179 18.537 33.7163C10.417 33.7147 3.83567 26.9052 3.83567 18.5077ZM30.3385 33.7147C28.0044 33.7471 25.9601 31.7614 25.9925 29.4165C25.9925 27.0424 27.9381 25.1184 30.3385 25.1184C32.6618 25.0798 34.7214 27.0763 34.6844 29.4165C34.6844 31.7907 32.7373 33.7147 30.3385 33.7147Z" fill="var(--fill-0, #4B5563)"/>
</g>
<defs>
<clipPath id="clip0_0_42">
<rect width="37" height="37" fill="white"/>
</clipPath>
</defs>
</svg>
