<svg preserveAspectRatio="none" width="100%" height="100%" overflow="visible" style="display: block;" viewBox="0 0 29 29" fill="none" xmlns="http://www.w3.org/2000/svg">
<g id="iconstack.io - (Person Arms Up)" clip-path="url(#clip0_0_187)">
<path id="Vector" d="M14.5 5.4375C15.2211 5.4375 15.9126 5.15106 16.4224 4.6412C16.9323 4.13133 17.2187 3.43981 17.2188 2.71875C17.2187 1.99769 16.9323 1.30617 16.4224 0.796303C15.9126 0.286439 15.2211 0 14.5 0C13.7789 0 13.0874 0.286439 12.5776 0.796303C12.0677 1.30617 11.7812 1.99769 11.7812 2.71875C11.7812 3.43981 12.0677 4.13133 12.5776 4.6412C13.0874 5.15106 13.7789 5.4375 14.5 5.4375Z" fill="url(#paint0_linear_0_187)"/>
<path id="Vector_2" d="M10.7476 12.1502L9.21422 27.4677C9.16542 27.8337 9.26405 28.2042 9.48839 28.4975C9.71273 28.7909 10.0444 28.9831 10.4105 29.0319C10.7765 29.0807 11.147 28.982 11.4403 28.7577C11.7337 28.5334 11.9259 28.2017 11.9747 27.8356L13.4428 19.0178C13.4832 18.7669 13.6116 18.5385 13.8051 18.3737C13.9986 18.2089 14.2444 18.1184 14.4986 18.1184C14.7527 18.1184 14.9986 18.2089 15.192 18.3737C15.3855 18.5385 15.5139 18.7669 15.5543 19.0178L17.0225 27.8356C17.0713 28.2017 17.2635 28.5334 17.5568 28.7577C17.8501 28.982 18.2206 29.0807 18.5867 29.0319C18.9527 28.9831 19.2844 28.7909 19.5087 28.4975C19.7331 28.2042 19.8317 27.8337 19.7829 27.4677L18.2513 12.1502C18.2125 11.7515 18.2622 11.3492 18.3969 10.9719C18.5316 10.5947 18.7481 10.2519 19.0307 9.96799L23.562 4.13899C23.7856 3.83974 23.8844 3.46542 23.8377 3.09478C23.7909 2.72415 23.6022 2.38609 23.3113 2.15175C23.0204 1.91741 22.6499 1.80505 22.2778 1.83831C21.9057 1.87158 21.561 2.04788 21.3163 2.33011L17.4611 6.95924C17.3081 7.15707 17.1 7.30525 16.863 7.38517C16.4461 7.5193 15.6577 7.70418 14.4995 7.70418C13.3395 7.70418 12.5528 7.5193 12.1342 7.38517C11.8978 7.30494 11.6904 7.15678 11.5378 6.95924L7.68265 2.33011C7.44024 2.04003 7.09366 1.85668 6.71745 1.8195C6.34125 1.78232 5.96548 1.89429 5.67098 2.13131C5.37647 2.36834 5.18677 2.71149 5.14267 3.08695C5.09857 3.4624 5.20359 3.84017 5.43515 4.13899L9.9664 9.96799C10.541 10.5407 10.8292 11.3419 10.7476 12.1502Z" fill="url(#paint1_linear_0_187)"/>
</g>
<defs>
<linearGradient id="paint0_linear_0_187" x1="14.5" y1="0" x2="14.5" y2="5.4375" gradientUnits="userSpaceOnUse">
<stop stop-color="#00F2FF"/>
<stop offset="1" stop-color="#009199"/>
</linearGradient>
<linearGradient id="paint1_linear_0_187" x1="14.4909" y1="1.8125" x2="14.4909" y2="29.0441" gradientUnits="userSpaceOnUse">
<stop stop-color="#00F2FF"/>
<stop offset="1" stop-color="#009199"/>
</linearGradient>
<clipPath id="clip0_0_187">
<rect width="29" height="29" fill="white"/>
</clipPath>
</defs>
</svg>
