<svg preserveAspectRatio="none" width="100%" height="100%" overflow="visible" style="display: block;" viewBox="0 0 32 32" fill="none" xmlns="http://www.w3.org/2000/svg">
<g id="iconstack.io - (Person Simple Run Regular)">
<path id="Vector" d="M18.9998 11C19.7909 11 20.5643 10.7654 21.2221 10.3259C21.8799 9.88635 22.3926 9.26164 22.6953 8.53074C22.9981 7.79983 23.0773 6.99556 22.9229 6.21964C22.7686 5.44372 22.3876 4.73098 21.8282 4.17157C21.2688 3.61216 20.5561 3.2312 19.7801 3.07686C19.0042 2.92252 18.2 3.00173 17.469 3.30448C16.7381 3.60723 16.1134 4.11992 15.6739 4.77772C15.2344 5.43552 14.9998 6.20888 14.9998 7C14.9998 8.06087 15.4212 9.07828 16.1714 9.82843C16.9215 10.5786 17.9389 11 18.9998 11ZM18.9998 5C19.3953 5 19.782 5.1173 20.1109 5.33706C20.4398 5.55683 20.6962 5.86918 20.8475 6.23463C20.9989 6.60009 21.0385 7.00222 20.9614 7.39018C20.8842 7.77814 20.6937 8.13451 20.414 8.41422C20.1343 8.69392 19.7779 8.8844 19.39 8.96157C19.002 9.03874 18.5999 8.99914 18.2344 8.84776C17.869 8.69639 17.5566 8.44004 17.3368 8.11114C17.1171 7.78224 16.9998 7.39556 16.9998 7C16.9998 6.46957 17.2105 5.96086 17.5856 5.58579C17.9606 5.21072 18.4694 5 18.9998 5ZM27.4135 17.585C27.3373 17.62 26.4773 17.995 24.9548 17.995C23.2235 17.995 20.636 17.51 17.3685 15.495C16.8712 16.9068 16.2255 18.2619 15.4423 19.5375C16.8491 19.9706 18.1724 20.6388 19.356 21.5138C21.7398 23.3313 22.9998 25.9188 22.9998 29C22.9998 29.2652 22.8944 29.5196 22.7069 29.7071C22.5194 29.8946 22.265 30 21.9998 30C21.7346 30 21.4802 29.8946 21.2927 29.7071C21.1051 29.5196 20.9998 29.2652 20.9998 29C20.9998 23.7875 16.6635 21.9113 14.2323 21.2688C14.1635 21.3563 14.0923 21.445 14.021 21.5313C11.566 24.5063 8.48978 26.0538 5.06728 26.0538C4.67746 26.0556 4.28779 26.0376 3.89978 26C3.63457 25.9735 3.39075 25.8427 3.22196 25.6364C3.05318 25.4301 2.97326 25.1652 2.99978 24.9C3.0263 24.6348 3.1571 24.391 3.36339 24.2222C3.56968 24.0534 3.83457 23.9735 4.09978 24C7.33978 24.3225 10.1585 23.0638 12.4748 20.25C14.036 18.3575 15.0998 16.0488 15.631 14.375C10.766 11.5438 7.65853 13.9538 7.62478 13.98C7.52292 14.067 7.40461 14.1326 7.2769 14.173C7.14918 14.2134 7.01465 14.2277 6.88129 14.2151C6.74794 14.2025 6.61847 14.1632 6.50059 14.0996C6.3827 14.036 6.27879 13.9494 6.19503 13.8448C6.11127 13.7403 6.04937 13.62 6.01299 13.4911C5.97662 13.3622 5.96651 13.2273 5.98328 13.0944C6.00004 12.9615 6.04334 12.8333 6.11059 12.7175C6.17784 12.6016 6.26769 12.5005 6.37478 12.42C6.56228 12.27 11.0273 8.795 17.5635 13.2413C23.2473 17.105 26.5548 15.78 26.586 15.765C26.7058 15.7084 26.8357 15.6762 26.968 15.6703C27.1004 15.6643 27.2326 15.6847 27.357 15.7303C27.4814 15.7758 27.5956 15.8457 27.6927 15.9357C27.7899 16.0258 27.8682 16.1342 27.9232 16.2548C27.9781 16.3754 28.0085 16.5057 28.0126 16.6381C28.0167 16.7705 27.9945 16.9025 27.9472 17.0262C27.8999 17.15 27.8284 17.2631 27.7371 17.359C27.6457 17.455 27.5361 17.5318 27.4148 17.585H27.4135Z" fill="url(#paint0_linear_0_124)"/>
</g>
<defs>
<linearGradient id="paint0_linear_0_124" x1="15.5039" y1="3" x2="15.5039" y2="30" gradientUnits="userSpaceOnUse">
<stop stop-color="#225B88"/>
<stop offset="1" stop-color="#091722"/>
</linearGradient>
</defs>
</svg>
