<svg preserveAspectRatio="none" width="100%" height="100%" overflow="visible" style="display: block;" viewBox="0 0 50 50" fill="none" xmlns="http://www.w3.org/2000/svg">
<g id="iconstack.io - (Ic Fluent Premium 24 Filled)">
<path id="Vector" d="M37.5003 6.25C38.2018 6.25 38.8497 6.60227 39.2328 7.17625L39.3637 7.40165L45.6137 19.9016C45.9543 20.5827 45.8935 21.3873 45.4732 22.0048L45.2989 22.2271L26.6043 43.0038C26.2301 43.4604 25.6953 43.7075 25.1476 43.745C25.0172 43.754 24.887 43.751 24.7576 43.7358L24.5235 43.6965C24.1041 43.6008 23.7107 43.3771 23.4143 43.0252L4.70183 22.2271C4.19248 21.661 4.03719 20.8692 4.27802 20.1622L4.38698 19.9016L10.637 7.40165C10.9507 6.77425 11.5555 6.35229 12.2402 6.26625L12.5004 6.25H37.5003ZM30.367 22.9167H19.6316L25.0003 36.1292L30.367 22.9167ZM39.0691 22.9167H34.8649L31.4045 31.4333L39.0691 22.9167ZM15.1337 22.9167H10.9295L18.592 31.4313L15.1337 22.9167ZM17.9628 10.4167H13.7879L9.62116 18.75H15.2545L17.9628 10.4167ZM27.6524 10.4167H22.3462L19.6399 18.75H30.3587L27.6524 10.4167ZM36.2108 10.4167H32.0357L34.7441 18.75H40.3774L36.2108 10.4167Z" fill="var(--fill-0, #094CF2)"/>
</g>
</svg>
