<svg preserveAspectRatio="none" width="100%" height="100%" overflow="visible" style="display: block;" viewBox="0 0 34 34" fill="none" xmlns="http://www.w3.org/2000/svg">
<g id="iconstack.io - (Running)">
<path id="Vector" fill-rule="evenodd" clip-rule="evenodd" d="M26.2083 3.89551C24.8391 3.89551 23.7292 5.00547 23.7292 6.37467C23.7292 7.74388 24.8391 8.85384 26.2083 8.85384C27.5775 8.85384 28.6875 7.74388 28.6875 6.37467C28.6875 5.00547 27.5775 3.89551 26.2083 3.89551ZM21.6042 6.37467C21.6042 3.83186 23.6656 1.77051 26.2083 1.77051C28.7511 1.77051 30.8125 3.83186 30.8125 6.37467C30.8125 8.91749 28.7511 10.9788 26.2083 10.9788C23.6656 10.9788 21.6042 8.91749 21.6042 6.37467ZM14.2406 8.4014C14.5374 8.36042 14.889 8.3231 15.2617 8.33962C15.3751 8.34465 15.5037 8.35384 15.6488 8.3689C19.0243 8.71926 21.5288 11.2526 23.1968 13.7546L23.2852 13.887C24.139 15.1678 25.5766 15.9372 27.116 15.9372H29.75C30.3368 15.9372 30.8125 16.4129 30.8125 16.9997C30.8125 17.5865 30.3368 18.0622 29.75 18.0622H27.116C24.866 18.0622 22.7651 16.9378 21.517 15.0658L21.4288 14.9333C21.0427 14.3543 20.6281 13.8046 20.1859 13.3014L17.5169 16.6371C16.9115 17.3939 16.5053 17.9034 16.2316 18.322C15.9664 18.7274 15.8907 18.9535 15.8706 19.1251C15.8373 19.4084 15.8732 19.6956 15.9748 19.9621C16.0364 20.1236 16.1652 20.3242 16.5216 20.6523C16.8896 20.9908 17.4083 21.3852 18.1808 21.9705C18.2264 22.005 18.2715 22.0392 18.3159 22.0729C19.3372 22.8458 20.0443 23.3812 20.5337 24.0963C20.812 24.5029 21.0323 24.9462 21.1884 25.4135C21.4628 26.2355 21.4625 27.1223 21.4619 28.4031C21.4619 28.4588 21.4619 28.5153 21.4619 28.5727V31.1661C21.4619 31.7528 20.9862 32.2286 20.3994 32.2286C19.8126 32.2286 19.3369 31.7528 19.3369 31.1661V28.5727C19.3369 27.056 19.324 26.5398 19.1727 26.0866C19.0791 25.8062 18.9469 25.5403 18.78 25.2964C18.5103 24.9021 18.1064 24.5801 16.8976 23.6644L16.8568 23.6334C16.1355 23.0871 15.5345 22.6316 15.0825 22.2158C14.6108 21.7815 14.217 21.3164 13.9892 20.7193C13.7656 20.1328 13.687 19.5011 13.76 18.8777C13.8344 18.2429 14.1022 17.6955 14.4531 17.1589C14.7893 16.6449 15.2605 16.056 15.8257 15.3495L18.6358 11.8373C17.6623 11.0967 16.5903 10.603 15.4295 10.4825C15.3244 10.4716 15.2375 10.4656 15.1675 10.4625C14.9863 10.4545 14.7836 10.4716 14.5313 10.5064C13.0221 10.7148 11.5097 11.5533 8.22544 13.4193L6.19156 14.5749C5.68136 14.8649 5.03275 14.6863 4.74287 14.1761C4.45298 13.6658 4.63158 13.0173 5.14178 12.7274L7.17566 11.5718C7.24822 11.5305 7.32013 11.4897 7.3914 11.4492C10.3934 9.743 12.2768 8.67258 14.2406 8.4014ZM13.4302 23.2667C13.881 23.6424 13.9419 24.3124 13.5662 24.7631L12.1485 26.4646C12.1023 26.52 12.0568 26.5746 12.0118 26.6286C11.1022 27.7217 10.4345 28.5243 9.50239 28.9609C8.57025 29.3973 7.52631 29.3966 6.10423 29.3956C6.03398 29.3955 5.96281 29.3955 5.89068 29.3955H4.25C3.6632 29.3955 3.1875 28.9198 3.1875 28.333C3.1875 27.7462 3.6632 27.2705 4.25 27.2705H5.89068C7.62131 27.2705 8.15144 27.247 8.60105 27.0365C9.05066 26.8258 9.40808 26.4337 10.516 25.1041L11.9338 23.4029C12.3094 22.9521 12.9794 22.8912 13.4302 23.2667Z" fill="var(--fill-0, #4B5563)"/>
</g>
</svg>
