<svg preserveAspectRatio="none" width="100%" height="100%" overflow="visible" style="display: block;" viewBox="0 0 28 28" fill="none" xmlns="http://www.w3.org/2000/svg">
<g id="iconstack.io - (Stress Breath Editor)">
<path id="Vector" d="M17.5 3.5C18.3653 3.5 19.2112 3.75659 19.9306 4.23732C20.6501 4.71805 21.2108 5.40133 21.542 6.20076C21.8731 7.00019 21.9597 7.87985 21.7909 8.72852C21.6221 9.57719 21.2054 10.3567 20.5936 10.9686C19.9817 11.5804 19.2022 11.9971 18.3535 12.1659C17.5049 12.3347 16.6252 12.2481 15.8258 11.917C15.0263 11.5858 14.3431 11.0251 13.8623 10.3056C13.3816 9.58615 13.125 8.74029 13.125 7.875C13.125 6.71468 13.5859 5.60188 14.4064 4.78141C15.2269 3.96094 16.3397 3.5 17.5 3.5ZM17.5 1.75C16.2886 1.75 15.1044 2.10923 14.0971 2.78225C13.0899 3.45527 12.3048 4.41187 11.8412 5.53106C11.3777 6.65026 11.2564 7.88179 11.4927 9.06993C11.729 10.2581 12.3124 11.3494 13.169 12.206C14.0256 13.0626 15.1169 13.646 16.3051 13.8823C17.4932 14.1186 18.7247 13.9973 19.8439 13.5338C20.9631 13.0702 21.9197 12.2851 22.5928 11.2779C23.2658 10.2706 23.625 9.08641 23.625 7.875C23.625 6.25055 22.9797 4.69263 21.831 3.54397C20.6824 2.39531 19.1245 1.75 17.5 1.75Z" fill="var(--fill-0, #4B5563)" stroke="var(--stroke-0, #4B5563)" stroke-width="0.75"/>
<path id="Vector_2" d="M26.25 26.25H24.5V21.875C24.5 20.7147 24.0391 19.6019 23.2186 18.7814C22.3981 17.9609 21.2853 17.5 20.125 17.5H14.875C13.7147 17.5 12.6019 17.9609 11.7814 18.7814C10.9609 19.6019 10.5 20.7147 10.5 21.875V26.25H8.75V21.875C8.75 20.2505 9.39531 18.6926 10.544 17.544C11.6926 16.3953 13.2505 15.75 14.875 15.75H20.125C21.7495 15.75 23.3074 16.3953 24.456 17.544C25.6047 18.6926 26.25 20.2505 26.25 21.875V26.25Z" fill="var(--fill-0, #4B5563)" stroke="var(--stroke-0, #4B5563)" stroke-width="0.75"/>
<path id="Vector_3" d="M9.625 7H4.375C3.67881 7 3.01113 6.72344 2.51884 6.23116C2.02656 5.73887 1.75 5.07119 1.75 4.375V2.625H3.5V4.375C3.5 4.60706 3.59219 4.82962 3.75628 4.99372C3.92038 5.15781 4.14294 5.25 4.375 5.25H9.625V7Z" fill="var(--fill-0, #4B5563)" stroke="var(--stroke-0, #4B5563)" stroke-width="0.75"/>
<path id="Vector_4" d="M3.5 13.125H1.75V11.375C1.75 10.6788 2.02656 10.0111 2.51884 9.51884C3.01113 9.02656 3.67881 8.75 4.375 8.75H9.625V10.5H4.375C4.14294 10.5 3.92038 10.5922 3.75628 10.7563C3.59219 10.9204 3.5 11.1429 3.5 11.375V13.125Z" fill="var(--fill-0, #4B5563)" stroke="var(--stroke-0, #4B5563)" stroke-width="0.75"/>
</g>
</svg>
