<svg preserveAspectRatio="none" width="100%" height="100%" overflow="visible" style="display: block;" viewBox="0 0 32 32" fill="none" xmlns="http://www.w3.org/2000/svg">
<g id="iconstack.io - (Sun High)">
<path id="Vector" d="M19.7709 19.7711C20.2803 19.2791 20.6866 18.6906 20.9661 18.0399C21.2456 17.3892 21.3927 16.6894 21.3989 15.9812C21.405 15.2731 21.2701 14.5708 21.0019 13.9153C20.7338 13.2599 20.3378 12.6644 19.837 12.1637C19.3362 11.6629 18.7408 11.2669 18.0853 10.9987C17.4299 10.7306 16.7276 10.5956 16.0194 10.6018C15.3113 10.6079 14.6114 10.755 13.9607 11.0346C13.31 11.3141 12.7215 11.7204 12.2296 12.2298C11.258 13.2356 10.7205 14.5829 10.7326 15.9812C10.7448 17.3796 11.3057 18.7173 12.2945 19.7061C13.2834 20.695 14.621 21.2559 16.0194 21.268C17.4178 21.2802 18.765 20.7426 19.7709 19.7711Z" stroke="url(#paint0_linear_0_191)" stroke-width="2" stroke-linecap="round" stroke-linejoin="round"/>
<path id="Vector_2" d="M8.4576 23.543L6.57227 25.4283" stroke="url(#paint1_linear_0_191)" stroke-width="2" stroke-linecap="round" stroke-linejoin="round"/>
<path id="Vector_3" d="M8.4576 8.4576L6.57227 6.57227" stroke="url(#paint2_linear_0_191)" stroke-width="2" stroke-linecap="round" stroke-linejoin="round"/>
<path id="Vector_4" d="M23.543 8.4576L25.4283 6.57227" stroke="url(#paint3_linear_0_191)" stroke-width="2" stroke-linecap="round" stroke-linejoin="round"/>
<path id="Vector_5" d="M23.543 23.543L25.4283 25.4283" stroke="url(#paint4_linear_0_191)" stroke-width="2" stroke-linecap="round" stroke-linejoin="round"/>
<path id="Vector_6" d="M5.33366 16H2.66699" stroke="url(#paint5_linear_0_191)" stroke-width="2" stroke-linecap="round" stroke-linejoin="round"/>
<path id="Vector_7" d="M16 5.33366V2.66699" stroke="url(#paint6_linear_0_191)" stroke-width="2" stroke-linecap="round" stroke-linejoin="round"/>
<path id="Vector_8" d="M26.667 16H29.3337" stroke="url(#paint7_linear_0_191)" stroke-width="2" stroke-linecap="round" stroke-linejoin="round"/>
<path id="Vector_9" d="M16 26.667V29.3337" stroke="url(#paint8_linear_0_191)" stroke-width="2" stroke-linecap="round" stroke-linejoin="round"/>
</g>
<defs>
<linearGradient id="paint0_linear_0_191" x1="16.0658" y1="10.6016" x2="16.0658" y2="21.2682" gradientUnits="userSpaceOnUse">
<stop stop-color="#225B88"/>
<stop offset="1" stop-color="#091722"/>
</linearGradient>
<linearGradient id="paint1_linear_0_191" x1="7.51493" y1="23.543" x2="7.51493" y2="25.4283" gradientUnits="userSpaceOnUse">
<stop stop-color="#225B88"/>
<stop offset="1" stop-color="#091722"/>
</linearGradient>
<linearGradient id="paint2_linear_0_191" x1="7.51493" y1="6.57227" x2="7.51493" y2="8.4576" gradientUnits="userSpaceOnUse">
<stop stop-color="#225B88"/>
<stop offset="1" stop-color="#091722"/>
</linearGradient>
<linearGradient id="paint3_linear_0_191" x1="24.4856" y1="6.57227" x2="24.4856" y2="8.4576" gradientUnits="userSpaceOnUse">
<stop stop-color="#225B88"/>
<stop offset="1" stop-color="#091722"/>
</linearGradient>
<linearGradient id="paint4_linear_0_191" x1="24.4856" y1="23.543" x2="24.4856" y2="25.4283" gradientUnits="userSpaceOnUse">
<stop stop-color="#225B88"/>
<stop offset="1" stop-color="#091722"/>
</linearGradient>
<linearGradient id="paint5_linear_0_191" x1="4.00033" y1="16" x2="4.00033" y2="17" gradientUnits="userSpaceOnUse">
<stop stop-color="#225B88"/>
<stop offset="1" stop-color="#091722"/>
</linearGradient>
<linearGradient id="paint6_linear_0_191" x1="16.5" y1="2.66699" x2="16.5" y2="5.33366" gradientUnits="userSpaceOnUse">
<stop stop-color="#225B88"/>
<stop offset="1" stop-color="#091722"/>
</linearGradient>
<linearGradient id="paint7_linear_0_191" x1="28.0003" y1="16" x2="28.0003" y2="17" gradientUnits="userSpaceOnUse">
<stop stop-color="#225B88"/>
<stop offset="1" stop-color="#091722"/>
</linearGradient>
<linearGradient id="paint8_linear_0_191" x1="16.5" y1="26.667" x2="16.5" y2="29.3337" gradientUnits="userSpaceOnUse">
<stop stop-color="#225B88"/>
<stop offset="1" stop-color="#091722"/>
</linearGradient>
</defs>
</svg>
