<svg preserveAspectRatio="none" width="100%" height="100%" overflow="visible" style="display: block;" viewBox="0 0 33 33" fill="none" xmlns="http://www.w3.org/2000/svg">
<g id="iconstack.io - (User Rounded)">
<path id="Vector" fill-rule="evenodd" clip-rule="evenodd" d="M16.5 1.71875C12.8929 1.71875 9.96875 4.64289 9.96875 8.25C9.96875 11.8571 12.8929 14.7812 16.5 14.7812C20.1072 14.7812 23.0312 11.8571 23.0312 8.25C23.0312 4.64289 20.1072 1.71875 16.5 1.71875ZM12.0312 8.25C12.0312 5.78197 14.032 3.78125 16.5 3.78125C18.968 3.78125 20.9688 5.78197 20.9688 8.25C20.9688 10.718 18.968 12.7188 16.5 12.7188C14.032 12.7188 12.0312 10.718 12.0312 8.25Z" fill="url(#paint0_linear_0_177)"/>
<path id="Vector_2" fill-rule="evenodd" clip-rule="evenodd" d="M16.5 16.8438C13.6959 16.8438 11.1066 17.4911 9.18246 18.5906C7.2875 19.6734 5.84375 21.3264 5.84375 23.375C5.84375 25.4236 7.2875 27.0766 9.18246 28.1595C11.1066 29.2589 13.6959 29.9062 16.5 29.9062C19.304 29.9062 21.8934 29.2589 23.8176 28.1595C25.7125 27.0766 27.1562 25.4236 27.1562 23.375C27.1562 21.3264 25.7125 19.6734 23.8176 18.5906C21.8934 17.4911 19.304 16.8438 16.5 16.8438ZM7.90625 23.375C7.90625 22.386 8.61714 21.2891 10.2057 20.3813C11.7652 19.4902 13.9883 18.9062 16.5 18.9062C19.0117 18.9062 21.2348 19.4902 22.7942 20.3813C24.3829 21.2891 25.0938 22.386 25.0938 23.375C25.0938 24.364 24.3829 25.4609 22.7942 26.3687C21.2348 27.2598 19.0117 27.8438 16.5 27.8438C13.9883 27.8438 11.7652 27.2598 10.2057 26.3687C8.61714 25.4609 7.90625 24.364 7.90625 23.375Z" fill="url(#paint1_linear_0_177)"/>
</g>
<defs>
<linearGradient id="paint0_linear_0_177" x1="16.5" y1="1.71875" x2="16.5" y2="14.7812" gradientUnits="userSpaceOnUse">
<stop stop-color="#4285F3"/>
<stop offset="1" stop-color="#264D8D"/>
</linearGradient>
<linearGradient id="paint1_linear_0_177" x1="16.5" y1="16.8438" x2="16.5" y2="29.9062" gradientUnits="userSpaceOnUse">
<stop stop-color="#4285F3"/>
<stop offset="1" stop-color="#264D8D"/>
</linearGradient>
</defs>
</svg>
