<svg preserveAspectRatio="none" width="100%" height="100%" overflow="visible" style="display: block;" viewBox="0 0 48 48" fill="none" xmlns="http://www.w3.org/2000/svg">
<g id="iconstack.io - (Waterdrop)">
<path id="Vector" d="M23.4016 13.9146C24.1536 13.5668 24.4812 12.6754 24.1334 11.9235C23.7858 11.1716 22.8944 10.8439 22.1424 11.1916C18.2126 13.0089 15.1838 16.6225 13.7998 20.9952C13.5498 21.785 13.9874 22.628 14.7773 22.878C15.5671 23.128 16.41 22.6904 16.66 21.9006C17.815 18.2513 20.3106 15.344 23.4016 13.9146Z" fill="var(--fill-0, #094CF2)"/>
<path id="Vector_2" fill-rule="evenodd" clip-rule="evenodd" d="M28.7712 3.4573C25.7136 2.1809 22.2864 2.1809 19.2288 3.4573C10.3067 7.18174 4.5 16.0433 4.5 25.8562V26.3856C4.5 36.9102 12.851 45.5 23.223 45.5H24.777C35.149 45.5 43.5 36.9102 43.5 26.3856V25.8562C43.5 16.0433 37.6934 7.18174 28.7712 3.4573ZM20.3844 6.22578C22.7026 5.25808 25.2974 5.25808 27.6156 6.22578C35.3924 9.47216 40.5 17.2228 40.5 25.8562V26.3856C40.5 35.3174 33.429 42.5 24.777 42.5H23.223C14.571 42.5 7.5 35.3174 7.5 26.3856V25.8562C7.5 17.2228 12.6075 9.47216 20.3844 6.22578Z" fill="var(--fill-0, #094CF2)"/>
</g>
</svg>
