<svg preserveAspectRatio="none" width="100%" height="100%" overflow="visible" style="display: block;" viewBox="0 0 14.8073 14.8073" fill="none" xmlns="http://www.w3.org/2000/svg">
<g id="iconstack.io - (Yoga 02)" clip-path="url(#clip0_0_19)">
<path id="Vector" d="M4.86598 6.16952C5.28907 7.03131 5.74112 7.83837 5.63671 8.83126C5.46981 10.4186 3.54513 11.016 2.31433 11.7472C1.50796 12.2263 1.80945 13.5732 2.79902 13.5732C3.99882 13.5732 5.06964 13.4774 6.15213 12.9686L8.27483 11.6623C8.56949 11.5238 8.94128 11.5828 9.25513 11.7223" stroke="var(--stroke-0, #4285F3)" stroke-width="0.925459" stroke-linecap="round" stroke-linejoin="round"/>
<path id="Vector_2" d="M9.87849 6.16952C9.44643 7.03131 8.98481 7.83837 9.09142 8.83126C9.26189 10.4186 11.2273 11.016 12.4842 11.7472C13.3076 12.2263 12.9998 13.5732 11.9892 13.5732C10.764 13.5732 9.67051 13.4774 8.56508 12.9686L6.39741 11.6623C6.14439 11.5458 5.83564 11.5691 5.55321 11.6623" stroke="var(--stroke-0, #4285F3)" stroke-width="0.925459" stroke-linecap="round" stroke-linejoin="round"/>
<path id="Vector_3" d="M6.16976 2.46781C6.16976 3.1493 6.7222 3.70175 7.4037 3.70175C8.08521 3.70175 8.63765 3.1493 8.63765 2.46781C8.63765 1.78632 8.08521 1.23386 7.4037 1.23386C6.7222 1.23386 6.16976 1.78632 6.16976 2.46781Z" stroke="var(--stroke-0, #4285F3)" stroke-width="0.925459"/>
<path id="Vector_4" d="M1.85146 9.87057C3.36049 9.87057 4.03782 8.2016 4.25355 7.05045C4.30987 6.74999 4.40108 6.45039 4.60085 6.21896C5.27968 5.43253 6.28379 4.93479 7.40422 4.93479C8.52464 4.93479 9.52876 5.43253 10.2076 6.21896C10.4073 6.45039 10.4986 6.74999 10.5549 7.05045C10.7706 8.2016 11.4479 9.87057 12.957 9.87057" stroke="var(--stroke-0, #4285F3)" stroke-width="0.925459" stroke-linecap="round" stroke-linejoin="round"/>
</g>
<defs>
<clipPath id="clip0_0_19">
<rect width="14.8073" height="14.8073" fill="white"/>
</clipPath>
</defs>
</svg>
